<svg width="118" height="76" viewBox="0 0 118 76" fill="none" xmlns="http://www.w3.org/2000/svg">
<path d="M0 0V76H118V0H0ZM8.42857 8.44444H109.571V67.5556H8.42857V8.44444ZM16.8571 16.8889V59.1111H29.5C36.4704 59.1111 42.1429 53.428 42.1429 46.4444V29.5556C42.1429 22.572 36.4704 16.8889 29.5 16.8889H16.8571ZM59 16.8889C54.3516 16.8889 50.5714 20.6762 50.5714 25.3333V50.6667C50.5714 55.3238 54.3516 59.1111 59 59.1111H67.4286V50.6667H59V42.2222H67.4286V33.7778H59V25.3333H67.4286V16.8889H59ZM74.5566 16.8889L83.3391 54.9961C83.8954 57.4028 86.0346 59.1111 88.5 59.1111C90.9654 59.1111 93.1046 57.4028 93.6609 54.9961L102.443 16.8889H93.7926L88.5 39.8555L83.2075 16.8889H74.5566ZM25.2857 25.3333H29.5C31.8263 25.3333 33.7143 27.2249 33.7143 29.5556V46.4444C33.7143 48.7751 31.8263 50.6667 29.5 50.6667H25.2857V25.3333Z" fill="#192653"/>
</svg>
