<svg width="86" height="84" viewBox="0 0 86 84" fill="none" xmlns="http://www.w3.org/2000/svg">
<path fill-rule="evenodd" clip-rule="evenodd" d="M43.0356 0C19.238 0 0 19.2499 0 43.0647C0 62.1011 12.3265 78.215 29.4265 83.9183C31.5645 84.347 32.3476 82.9917 32.3476 81.8515C32.3476 80.8532 32.2771 77.4311 32.2771 73.8654C20.3057 76.4327 17.8127 68.7318 17.8127 68.7318C15.8888 63.7409 13.0382 62.4581 13.0382 62.4581C9.11998 59.82 13.3236 59.82 13.3236 59.82C17.67 60.1052 19.9507 64.2405 19.9507 64.2405C23.7976 70.7995 29.9965 68.9462 32.4903 67.8052C32.8462 65.0245 33.987 63.0995 35.1982 62.0302C25.6501 61.0319 15.6043 57.3245 15.6043 40.7827C15.6043 36.077 17.3132 32.227 20.0211 29.2328C19.5939 28.1635 18.0972 23.7422 20.4493 17.8246C20.4493 17.8246 24.083 16.6836 32.2762 22.245C35.7841 21.3024 39.4016 20.8228 43.0356 20.8188C46.6693 20.8188 50.3735 21.3184 53.794 22.245C61.9882 16.6836 65.6219 17.8246 65.6219 17.8246C67.9739 23.7422 66.4764 28.1635 66.0491 29.2328C68.8284 32.227 70.4669 36.077 70.4669 40.7827C70.4669 57.3245 60.4211 60.9601 50.8016 62.0302C52.3696 63.3847 53.7227 65.9511 53.7227 70.0155C53.7227 75.7904 53.6522 80.4253 53.6522 81.8507C53.6522 82.9917 54.4362 84.347 56.5733 83.9192C73.6733 78.2142 85.9998 62.1011 85.9998 43.0647C86.0703 19.2499 66.7618 0 43.0356 0Z" fill="white"/>
</svg>
