<svg width="84" height="84" viewBox="0 0 84 84" fill="none" xmlns="http://www.w3.org/2000/svg">
<path d="M10 0C4.50096 0 0 4.50096 0 10V74C0 79.499 4.50096 84 10 84H74C79.499 84 84 79.499 84 74V10C84 4.50096 79.499 0 74 0H10ZM10 4H74C77.337 4 80 6.66304 80 10V74C80 77.337 77.337 80 74 80H10C6.66304 80 4 77.337 4 74V10C4 6.66304 6.66304 4 10 4ZM20 14.0234C17.8096 14.0234 15.8384 14.6782 14.3789 15.9063C12.9194 17.1344 12.0234 18.969 12.0234 20.9336C12.0234 24.668 15.2626 27.5792 19.3828 27.8672C19.3854 27.8685 19.388 27.8698 19.3906 27.8711C19.587 27.938 19.7926 27.9736 20 27.9766C24.546 27.9766 27.9766 24.7922 27.9766 20.9336C27.9762 20.8984 27.9749 20.8632 27.9727 20.8281C27.7692 17.0277 24.3809 14.0234 20 14.0234ZM20 17.9766C22.7845 17.9766 23.8839 19.2201 24.0039 20.9844C23.9796 22.6969 22.9202 24.0234 20 24.0234C17.2292 24.0234 15.9766 22.6045 15.9766 20.9336C15.9766 20.0982 16.2814 19.4686 16.9219 18.9297C17.5623 18.3908 18.5904 17.9766 20 17.9766ZM14 30C12.8955 30.0001 12.0001 30.8955 12 32V70C12.0001 71.1045 12.8955 71.9999 14 72H26C27.1045 71.9999 27.9999 71.1045 28 70V58.2695V32C27.9999 30.8955 27.1045 30.0001 26 30H14ZM32 30C30.8955 30.0001 30.0001 30.8955 30 32V70C30.0001 71.1045 30.8955 71.9999 32 72H44C45.1045 71.9999 45.9999 71.1045 46 70V50C46 48.3407 46.4528 46.6901 47.25 45.6094C48.0472 44.5287 49.0529 43.8801 50.9648 43.9141C52.9363 43.948 53.98 44.6233 54.7695 45.6836C55.5591 46.7439 56 48.3333 56 50V70C56.0001 71.1045 56.8955 71.9999 58 72H70C71.1045 71.9999 71.9999 71.1045 72 70V48.5234C72 42.6004 70.2456 37.9087 67.2383 34.7344C64.231 31.5601 60.0483 30 55.625 30C51.4209 30 48.2217 31.4098 46 32.8477V32C45.9999 30.8955 45.1045 30.0001 44 30H32ZM16 34H24V58.2695V68H16V34ZM34 34H42V37.1211C42.0003 37.9811 42.5502 38.7447 43.3658 39.0174C44.1814 39.2902 45.0801 39.0111 45.5976 38.3242C45.5976 38.3242 48.7384 34 55.625 34C59.1316 34 62.1387 35.1652 64.3359 37.4844C66.5331 39.8036 68 43.3765 68 48.5234V68H60V50C60 47.6667 59.4409 45.2542 57.9804 43.293C56.52 41.3317 54.0636 39.9661 51.0351 39.9141C47.991 39.86 45.495 41.254 44.0312 43.2383C42.5674 45.2226 42 47.6593 42 50V68H34L34 34Z" fill="white"/>
</svg>
