<svg width="111" height="84" viewBox="0 0 111 84" fill="none" xmlns="http://www.w3.org/2000/svg">
<path d="M98.1413 0.011756C95.3468 -0.110677 92.4979 0.72444 90.1495 2.45907L83.8474 7.11163L55.1028 28.3619L26.6272 7.31335C26.2303 6.92558 25.7064 6.69471 25.1525 6.66343H25.7262L20.0696 2.47702C17.7197 0.738095 14.8666 -0.101704 12.0688 0.0207523C9.27112 0.143209 6.531 1.22608 4.40422 3.32416C1.70252 5.98781 0.0250776 9.71348 0.0250776 13.7991V21.6789C-0.0083592 21.9033 -0.0083592 22.1314 0.0250776 22.3557V75.9678C0.0250776 80.3768 3.6483 84 8.05725 84H25.2691C26.5364 83.9999 27.5638 82.9725 27.564 81.7051V43.5478L53.7403 62.8976C54.5504 63.4953 55.6554 63.4953 56.4655 62.8976L82.6417 43.5478V81.7051C82.6419 82.9725 83.6693 83.9999 84.9367 84H102.148C106.557 84 110.181 80.3768 110.181 75.9678V22.3109C110.207 22.1131 110.207 21.9126 110.181 21.7148V13.7991C110.181 9.76362 108.552 6.05526 105.887 3.38688C105.81 3.30984 105.784 3.28849 105.815 3.31964C105.81 3.31514 105.806 3.31066 105.801 3.30619C103.675 1.21275 100.936 0.134189 98.1413 0.011756ZM97.8903 4.5971C99.6259 4.66514 101.309 5.32343 102.583 6.57824C102.627 6.62109 102.658 6.65345 102.637 6.63204C104.465 8.46168 105.591 10.9958 105.591 13.7991V20.8811L87.2315 34.4488V10.563C87.2325 10.4852 87.2295 10.4074 87.2225 10.3299L92.8746 6.15247C92.8761 6.15247 92.8776 6.15247 92.8791 6.15247C94.3677 5.05287 96.1546 4.52903 97.8903 4.5971ZM12.3198 4.61054C14.0574 4.54252 15.8505 5.0637 17.3399 6.16587L22.9831 10.3388C22.9764 10.4134 22.9734 10.4881 22.9741 10.563V34.4488L4.61482 20.8811V13.7991C4.61482 10.9634 5.76632 8.42606 7.62689 6.59169C8.90116 5.33463 10.5822 4.67857 12.3198 4.61054ZM82.6417 13.7095V37.8419L55.1028 58.1957L27.5639 37.8419V13.714L53.7402 33.0638C54.5503 33.6615 55.6553 33.6615 56.4654 33.0638L82.6417 13.7095ZM4.61485 26.587L22.9741 40.1592V79.4102H8.05721C6.12763 79.4102 4.61485 77.8974 4.61485 75.9678V26.587ZM105.591 26.587V75.9678C105.591 77.8974 104.078 79.4102 102.148 79.4102H87.2315V40.1592L105.591 26.587Z" fill="black"/>
</svg>
